# xmcd
#
# Track frame offsets: 
#        150
#        18417
#        39602
#        58090
#        72855
#        90322
#        118465
#        128842
#        148102
#        166640
#        184957
#        204187
#        224807
#        240885
#        255235
#        280262
#        299055
#        314095
#
# Disc length: 4412 seconds
#
# Revision: 3
# Processed by: cddbd v1.5.2PL0 Copyright (c) Steve Scherf et al.
# Submitted via: ExactAudioCopyFreeDBPlugin 1.0
#
DISCID=16113a12
DTITLE=Various Artist - Blues Costume Party
DYEAR=1995
DGENRE=Blues
TTITLE0=Bobby Parker - Movin' Up
TTITLE1=Bobby Parker - Bobby-Q
TTITLE2=Alex Schultz with the Mighty Flyers - T-Bone Jumps Again
TTITLE3=Mike Morgan and the Crawl - My Baby's Gone
TTITLE4=Mike Morgan and the Crawl - Every Little Kiss
TTITLE5=Robert Ward - Pour Me One More Drink
TTITLE6=Lynn August - Juré
TTITLE7=Lynn August - It's My Soul
TTITLE8=Lynn August and Snooks Eaglin - What am I Living For?
TTITLE9=Tommy Ridgley - About My Past
TTITLE10=Snooks Eaglin - I'm Slippin' In
TTITLE11=Grady Gaines and the Texas Upsetters - Have Fun, Baby
TTITLE12=Lee McBee and Mike Morgan - Sweet Lolita
TTITLE13=W.C. Clark - A Certain Girl
TTITLE14=W.C. Clark - Let's Straighten it Out
TTITLE15=James "Thunderbird" Davis - What Else is There to Do?
TTITLE16=Hubert Sumlin, James "Thunderbird" Davis and Darrell Nullsch 
TTITLE16=/ I Don't Want to Hear About Yours
TTITLE17=Robert Ward - Allelujah
EXTD=
EXTT0=Bobby Parker\n
EXTT1=Bobby Parker\n
EXTT2=Alex Schultz with the Mighty Flyers\n
EXTT3=Mike Morgan and the Crawl\n
EXTT4=Mike Morgan and the Crawl\n
EXTT5=Robert Ward\n
EXTT6=Lynn August\n
EXTT7=Lynn August\n
EXTT8=Lynn August and Snooks Eaglin\n
EXTT9=Tommy Ridgley\n
EXTT10=Snooks Eaglin\n
EXTT11=Grady Gaines and the Texas Upsetters\n
EXTT12=Lee McBee and Mike Morgan\n
EXTT13=W. C. Clark\n
EXTT14=W. C. Clark\n
EXTT15=James Thunderbird Davis\n
EXTT16=Hubert Sumlin, James Thunderbird \nDavis, and Darrell Nulisch\n
EXTT17=Robert Ward\n
PLAYORDER=
